<?xml version="1.0" standalone="no"?>
<!DOCTYPE svg PUBLIC "-//W3C//DTD SVG 20010904//EN" "http://www.w3.org/TR/2001/REC-SVG-20010904/DTD/svg10.dtd">
<svg xmlns="http://www.w3.org/2000/svg" version="1.0" width="305.000000pt" height="295.000000pt" viewBox="0 0 305.000000 295.000000" preserveAspectRatio="xMidYMid meet">
<metadata>
Created by potrace 1.16, written by Peter Selinger 2001-2019
<meta name="Producer" content="Img2Go"/></metadata>
<g transform="translate(0.000000,295.000000) scale(0.100000,-0.100000)" fill="#000000" stroke="none">
<path d="M854 2611 c-138 -34 -256 -163 -284 -310 -14 -78 -13 -1414 1 -1483 28 -129 112 -237 227 -291 l67 -32 445 -5 445 -5 229 -173 c283 -214 266 -215 266 18 l0 158 108 4 c93 3 114 8 165 33 71 35 150 117 185 192 l27 58 0 785 0 785 -34 62 c-41 77 -113 146 -189 181 l-57 27 -785 2 c-432 0 -799 -2 -816 -6z m1553 -232 c38 -14 83 -57 99 -96 11 -26 14 -159 14 -727 0 -467 -3 -704 -11 -723 -14 -38 -57 -83 -95 -99 -24 -10 -178 -13 -753 -13 -780 -1 -761 -2 -820 52 -52 48 -51 34 -51 787 0 584 2 706 14 728 18 35 64 78 96 91 36 14 1469 15 1507 0z"/>
<path d="M1523 2115 c-161 -35 -309 -152 -379 -298 -84 -178 -77 -375 19 -547 42 -74 148 -178 223 -218 134 -70 303 -80 459 -28 l80 27 37 -43 c21 -24 55 -64 75 -90 21 -26 40 -47 43 -46 3 0 38 36 79 79 l74 78 -59 68 c-95 108 -90 96 -54 148 75 109 106 226 97 363 -13 202 -122 369 -298 458 -124 62 -259 79 -396 49z m193 -196 c170 -31 285 -171 287 -349 1 -82 -11 -137 -43 -188 l-20 -33 -62 70 -61 69 -76 -65 c-42 -37 -78 -67 -80 -69 -2 -2 22 -31 53 -66 31 -35 56 -66 56 -70 0 -12 -89 -21 -154 -16 -123 10 -230 86 -282 201 -39 84 -41 211 -5 302 42 105 155 195 271 215 25 4 48 8 51 9 3 0 32 -4 65 -10z"/>
</g>
</svg>
